%TF.GenerationSoftware,KiCad,Pcbnew,(6.0.1)*%
%TF.CreationDate,2022-02-12T15:23:01+08:00*%
%TF.ProjectId,board,626f6172-642e-46b6-9963-61645f706362,rev?*%
%TF.SameCoordinates,Original*%
%TF.FileFunction,Soldermask,Top*%
%TF.FilePolarity,Negative*%
%FSLAX46Y46*%
G04 Gerber Fmt 4.6, Leading zero omitted, Abs format (unit mm)*
G04 Created by KiCad (PCBNEW (6.0.1)) date 2022-02-12 15:23:01*
%MOMM*%
%LPD*%
G01*
G04 APERTURE LIST*
%ADD10R,0.700000X1.200000*%
%ADD11R,0.230000X0.920000*%
%ADD12R,1.999996X3.500001*%
%ADD13R,0.249987X1.499997*%
%ADD14R,0.350000X1.000000*%
%ADD15R,0.300000X1.200000*%
%ADD16R,1.500000X1.500000*%
%ADD17C,1.500000*%
G04 APERTURE END LIST*
D10*
%TO.C,P2*%
X136783101Y-104607100D03*
X144183101Y-104607100D03*
X144183101Y-107607100D03*
X136783101Y-107607100D03*
D11*
X137683101Y-107747100D03*
X138083101Y-107747100D03*
X138483100Y-107747100D03*
X138883099Y-107747100D03*
X139283098Y-107747100D03*
X139683097Y-107747100D03*
X140083097Y-107747100D03*
X140483095Y-107747100D03*
X140883095Y-107747100D03*
X141283095Y-107747100D03*
X141683093Y-107747100D03*
X142083093Y-107747100D03*
X142483092Y-107747100D03*
X142883091Y-107747100D03*
X143283090Y-107747100D03*
X143283090Y-104467100D03*
X142883091Y-104467100D03*
X142483092Y-104467100D03*
X142083093Y-104467100D03*
X141683093Y-104467100D03*
X141283095Y-104467100D03*
X140883095Y-104467100D03*
X140483095Y-104467100D03*
X140083097Y-104467100D03*
X139683097Y-104467100D03*
X139283098Y-104467100D03*
X138883099Y-104467100D03*
X138483100Y-104467100D03*
X138083101Y-104467100D03*
X137683101Y-104467100D03*
%TD*%
D12*
%TO.C,LCD1*%
X128504112Y-130808095D03*
X157504079Y-130808095D03*
D13*
X130754121Y-128308100D03*
X131254120Y-128308100D03*
X131754119Y-128308100D03*
X132254118Y-128308100D03*
X132754117Y-128308100D03*
X133254116Y-128308100D03*
X133754115Y-128308100D03*
X134254114Y-128308100D03*
X134754113Y-128308100D03*
X135254112Y-128308100D03*
X135754111Y-128308100D03*
X136254110Y-128308100D03*
X136754109Y-128308100D03*
X137254108Y-128308100D03*
X137754107Y-128308100D03*
X138254106Y-128308100D03*
X138754105Y-128308100D03*
X139254104Y-128308100D03*
X139754103Y-128308100D03*
X140254101Y-128308100D03*
X140754101Y-128308100D03*
X141254101Y-128308100D03*
X141754099Y-128308100D03*
X142254098Y-128308100D03*
X142754097Y-128308100D03*
X143254096Y-128308100D03*
X143754095Y-128308100D03*
X144254094Y-128308100D03*
X144754093Y-128308100D03*
X145254092Y-128308100D03*
X145754116Y-128308100D03*
X146254115Y-128308100D03*
X146754114Y-128308100D03*
X147254113Y-128308100D03*
X147754112Y-128308100D03*
X148254111Y-128308100D03*
X148754110Y-128308100D03*
X149254109Y-128308100D03*
X149754108Y-128308100D03*
X150254107Y-128308100D03*
X150754106Y-128308100D03*
X151254105Y-128308100D03*
X151754104Y-128308100D03*
X152254103Y-128308100D03*
X152754101Y-128308100D03*
X153254101Y-128308100D03*
X153754101Y-128308100D03*
X154254099Y-128308100D03*
X154754098Y-128308100D03*
X155254097Y-128308100D03*
%TD*%
D14*
%TO.C,P1*%
X132812493Y-96146696D03*
X124362492Y-96146696D03*
D15*
X132187493Y-96046696D03*
X131887494Y-99196696D03*
X131587494Y-96046696D03*
X131287495Y-99196696D03*
X130987495Y-96046696D03*
X130687496Y-99196696D03*
X130387497Y-96046696D03*
X130087497Y-99196696D03*
X129787499Y-96046696D03*
X129487499Y-99196696D03*
X129187499Y-96046696D03*
X128887499Y-99196696D03*
X128587499Y-96046696D03*
X128287501Y-99196696D03*
X127987501Y-96046696D03*
X127687502Y-99196696D03*
X127387503Y-96046696D03*
X127087503Y-99196696D03*
X126787504Y-96046696D03*
X126487504Y-99196696D03*
X126187505Y-96046696D03*
X125887506Y-99196696D03*
X125587506Y-96046696D03*
X125287507Y-99196696D03*
X124987507Y-96046696D03*
%TD*%
D16*
%TO.C,P3*%
X169506901Y-126225300D03*
D17*
X166966901Y-126225300D03*
X169506901Y-123685300D03*
X166966901Y-123685300D03*
X169506901Y-121145300D03*
X166966901Y-121145300D03*
X169506901Y-118605300D03*
X166966901Y-118605300D03*
X169506901Y-116065300D03*
X166966901Y-116065300D03*
X169506901Y-113525300D03*
X166966901Y-113525300D03*
X169506901Y-110985300D03*
X166966901Y-110985300D03*
X169506901Y-108445300D03*
X166966901Y-108445300D03*
X169506901Y-105905300D03*
X166966901Y-105905300D03*
X169506901Y-103365300D03*
X166966901Y-103365300D03*
X169506901Y-100825300D03*
X166966901Y-100825300D03*
X169506901Y-98285300D03*
X166966901Y-98285300D03*
%TD*%
M02*
