M48
; DRILL file {KiCad (6.0.1)} date Sat Feb 12 15:23:03 2022
; FORMAT={-:-/ absolute / inch / decimal}
; #@! TF.CreationDate,2022-02-12T15:23:03+08:00
; #@! TF.GenerationSoftware,Kicad,Pcbnew,(6.0.1)
; #@! TF.FileFunction,MixedPlating,1,2
FMAT,2
INCH
; #@! TA.AperFunction,Plated,PTH,ViaDrill
T1C0.0118
; #@! TA.AperFunction,Plated,PTH,ComponentDrill
T2C0.0354
%
G90
G05
T1
X4.87Y-4.216
X4.884Y-4.598
X4.884Y-5.056
X4.927Y-3.835
X4.9898Y-4.1482
X4.992Y-4.031
X5.0052Y-4.1328
X5.0215Y-3.8327
X5.0215Y-3.8543
X5.0805Y-3.8237
X5.0805Y-3.8453
X5.113Y-4.037
X5.1335Y-3.8297
X5.1335Y-3.8513
X5.144Y-3.71
X5.164Y-4.374
X5.174Y-4.692
X5.221Y-3.709
X5.257Y-4.238
X5.327Y-3.86
X5.337Y-4.009
X5.353Y-4.437
X5.354Y-4.716
X5.355Y-3.747
X5.4194Y-3.9531
X5.423Y-4.199
X5.43Y-3.678
X5.4348Y-4.0613
X5.44Y-4.891
X5.45Y-3.826
X5.471Y-3.961
X5.478Y-3.992
X5.484Y-4.687
X5.5066Y-4.0229
X5.509Y-4.198
X5.509Y-4.405
X5.5245Y-4.154
X5.5245Y-4.173
X5.5428Y-4.4062
X5.5516Y-3.8879
X5.5516Y-4.0272
X5.556Y-3.687
X5.5582Y-4.3908
X5.5617Y-4.9565
X5.5803Y-4.9565
X5.5937Y-4.6797
X5.597Y-3.728
X5.6081Y-4.3065
X5.61Y-4.504
X5.6123Y-4.6797
X5.6267Y-4.3065
X5.684Y-3.677
X5.6866Y-3.9079
X5.6916Y-3.9479
X5.709Y-3.848
X5.7116Y-3.9729
X5.7389Y-4.9865
X5.745Y-4.752
X5.746Y-4.5
X5.751Y-4.382
X5.7516Y-3.8779
X5.7575Y-4.9865
X5.817Y-3.949
X5.8816Y-4.029
X5.8966Y-3.9979
X5.963Y-4.444
X5.9816Y-4.1279
X6.022Y-3.828
X6.041Y-4.432
X6.226Y-4.14
X6.238Y-4.516
T2
X6.5735Y-3.8695
X6.5735Y-3.9695
X6.5735Y-4.0695
X6.5735Y-4.1695
X6.5735Y-4.2695
X6.5735Y-4.3695
X6.5735Y-4.4695
X6.5735Y-4.5695
X6.5735Y-4.6695
X6.5735Y-4.7695
X6.5735Y-4.8695
X6.5735Y-4.9695
X6.6735Y-3.8695
X6.6735Y-3.9695
X6.6735Y-4.0695
X6.6735Y-4.1695
X6.6735Y-4.2695
X6.6735Y-4.3695
X6.6735Y-4.4695
X6.6735Y-4.5695
X6.6735Y-4.6695
X6.6735Y-4.7695
X6.6735Y-4.8695
X6.6735Y-4.9695
T0
M30
